<?xml version="1.0" encoding="utf-8"?>
<!-- Generator: Adobe Illustrator 19.0.0, SVG Export Plug-In . SVG Version: 6.00 Build 0)  -->
<svg version="1.1" id="Layer_1" xmlns="http://www.w3.org/2000/svg" xmlns:xlink="http://www.w3.org/1999/xlink" x="0px" y="0px"
	 viewBox="-107 110 626.9 375.3" style="enable-background:new -107 110 626.9 375.3;" xml:space="preserve">
<style type="text/css">
	.st0{opacity:0.3;}
	.st1{fill:#D8ECF3;}
	.st2{fill:#B9D0D6;}
	.st3{fill:#152054;}
	.st4{fill:#F9E35D;}
	.st5{fill:#D6DAE7;}
	.st6{fill:#F8FCFD;}
	.st7{fill:#FFFFFF;}
	.st8{fill:none;stroke:#152054;stroke-width:4;}
	.st9{fill:#A2DB69;}
	.st10{fill:#80C46A;}
	.st11{fill:#4AA957;}
	.st12{fill:#C5E201;}
	.st13{fill:#A5D600;}
	.st14{fill:#87BE00;}
	.st15{fill:#7B6769;}
	.st16{fill:#D5CDBD;}
	.st17{fill:#EAE6DE;}
	.st18{fill:#F4F2EE;}
	.st19{fill:#E0DBD0;}
	.st20{opacity:0.2;fill:#BCB2A2;enable-background:new    ;}
	.st21{fill:#F4FAFE;}
	.st22{fill:#F3885F;}
	.st23{opacity:0.3;fill:#152054;enable-background:new    ;}
	.st24{fill:#F8A382;}
	.st25{fill:#9ECCD8;}
	.st26{fill:#F55D6C;}
	.st27{opacity:0.2;fill:#FFFFFF;enable-background:new    ;}
</style>
<g>
	<g class="st0">
		<g>
			<g>
				<g>
					<path class="st1" d="M514.7,309.8c0,4.7-3.9,8.6-8.6,8.6h-51.5c-4.7,0-8.6-3.9-8.6-8.6V296c0-4.7,3.9-8.6,8.6-8.6h51.5
						c4.7,0,8.6,3.9,8.6,8.6V309.8z"/>
				</g>
			</g>
			<g>
				<path class="st2" d="M514.7,311.2c0,3.9-3.6,7.1-8,7.1h-47.9c-4.4,0-8-3.2-8-7.1v-11.4c0-3.9,3.6-7.1,8-7.1h47.9
					c4.4,0,8,3.2,8,7.1V311.2z"/>
			</g>
			<g>
				<path class="st3" d="M444.7,309.8V296c0-5.5,4.5-10,10-10l0,0h51.5c5.5,0,10,4.5,10,10l0,0v13.8c0,5.5-4.5,10-10,10l0,0h-51.5
					C449.2,319.8,444.7,315.3,444.7,309.8L444.7,309.8z M454.7,288.8c-3.9,0-7.1,3.2-7.2,7.2l0,0v13.8c0,3.9,3.2,7.1,7.2,7.2l0,0
					h51.5c3.9,0,7.1-3.2,7.2-7.2l0,0V296c0-3.9-3.2-7.1-7.2-7.2l0,0H454.7L454.7,288.8z"/>
			</g>
		</g>
		<g>
			<g>
				<g>
					<path class="st1" d="M482.2,278.8c0,4.7-3.9,8.6-8.6,8.6h-51.5c-4.7,0-8.6-3.9-8.6-8.6V265c0-4.7,3.9-8.6,8.6-8.6h51.5
						c4.7,0,8.6,3.9,8.6,8.6V278.8z"/>
				</g>
			</g>
			<g>
				<path class="st2" d="M482.2,280.3c0,3.9-3.6,7.1-8,7.1h-47.9c-4.4,0-8-3.2-8-7.1v-11.4c0-3.9,3.6-7.1,8-7.1h47.9
					c4.4,0,8,3.2,8,7.1V280.3z"/>
			</g>
			<g>
				<path class="st3" d="M412.1,278.8V265c0-5.5,4.5-10,10-10l0,0h51.5c5.5,0,10,4.5,10,10l0,0v13.8c0,5.5-4.5,10-10,10l0,0h-51.5
					C416.6,288.8,412.1,284.3,412.1,278.8L412.1,278.8z M422.1,257.9c-3.9,0-7.1,3.2-7.2,7.2l0,0v13.8c0,3.9,3.2,7.1,7.2,7.2l0,0
					h51.5c3.9,0,7.1-3.2,7.2-7.2l0,0v-13.8c0-3.9-3.2-7.1-7.2-7.2l0,0H422.1L422.1,257.9z"/>
			</g>
		</g>
	</g>
	<g class="st0">
		<g>
			<g>
				<g>
					<path class="st1" d="M-40.6,331.3c0,4.7-3.9,8.6-8.6,8.6h-51.5c-4.7,0-8.6-3.9-8.6-8.6v-13.8c0-4.7,3.9-8.6,8.6-8.6h51.5
						c4.7,0,8.6,3.9,8.6,8.6V331.3z"/>
				</g>
			</g>
			<g>
				<path class="st2" d="M-40.6,332.7c0,3.9-3.6,7.1-8,7.1h-47.9c-4.4,0-8-3.2-8-7.1v-11.4c0-3.9,3.6-7.1,8-7.1h47.9
					c4.4,0,8,3.2,8,7.1V332.7L-40.6,332.7z"/>
			</g>
			<g>
				<path class="st3" d="M-110.7,331.3v-13.8c0-5.5,4.5-10,10-10l0,0h51.5c5.5,0,10,4.5,10,10l0,0v13.8c0,5.5-4.5,10-10,10l0,0
					h-51.5C-106.2,341.3-110.7,336.8-110.7,331.3L-110.7,331.3z M-100.7,310.3c-3.9,0-7.1,3.2-7.2,7.2l0,0v13.8
					c0,3.9,3.2,7.1,7.2,7.2l0,0h51.5c3.9,0,7.1-3.2,7.2-7.1l0,0v-13.8c0-3.9-3.2-7.1-7.2-7.2l0,0h-51.5V310.3z"/>
			</g>
		</g>
		<g>
			<g>
				<g>
					<path class="st1" d="M-9.1,300.3c0,4.7-3.9,8.6-8.6,8.6h-51.5c-4.7,0-8.6-3.9-8.6-8.6v-13.8c0-4.7,3.9-8.6,8.6-8.6h51.5
						c4.7,0,8.6,3.9,8.6,8.6C-9.1,286.5-9.1,300.3-9.1,300.3z"/>
				</g>
			</g>
			<g>
				<path class="st2" d="M-9.1,301.8c0,3.9-3.6,7.1-8,7.1H-65c-4.4,0-8-3.2-8-7.1v-11.4c0-3.9,3.6-7.1,8-7.1h47.9c4.4,0,8,3.2,8,7.1
					C-9.1,290.4-9.1,301.8-9.1,301.8z"/>
			</g>
			<g>
				<path class="st3" d="M-79.1,300.3v-13.8c0-5.5,4.5-10,10-10l0,0h51.5c5.5,0,10,4.5,10,10l0,0v13.8c0,5.5-4.5,10-10,10l0,0h-51.5
					C-74.6,310.3-79.1,305.8-79.1,300.3L-79.1,300.3z M-69.1,279.4c-3.9,0-7.1,3.2-7.2,7.2l0,0v13.7c0,3.9,3.2,7.1,7.2,7.2l0,0h51.5
					c3.9,0,7.1-3.2,7.2-7.2l0,0v-13.8c0-3.9-3.2-7.1-7.2-7.2l0,0L-69.1,279.4L-69.1,279.4z"/>
			</g>
		</g>
	</g>
	<g class="st0">
		<g>
			<g>
				<g>
					<path class="st1" d="M51.5,172.9c0,4.7-3.9,8.6-8.6,8.6H-8.5c-4.7,0-8.6-3.9-8.6-8.6v-13.8c0-4.7,3.9-8.6,8.6-8.6H43
						c4.7,0,8.6,3.9,8.6,8.6L51.5,172.9L51.5,172.9z"/>
				</g>
			</g>
			<g>
				<path class="st2" d="M51.5,174.4c0,3.9-3.6,7.1-8,7.1H-4.4c-4.4,0-8-3.2-8-7.1V163c0-3.9,3.6-7.1,8-7.1h47.9c4.4,0,8,3.2,8,7.1
					V174.4z"/>
			</g>
			<g>
				<path class="st3" d="M-18.6,172.9v-13.8c0-5.5,4.5-10,10-10l0,0h51.5c5.5,0,10,4.5,10,10l0,0v13.8c0,5.5-4.5,10-10,10l0,0H-8.6
					C-14.1,182.9-18.6,178.5-18.6,172.9L-18.6,172.9z M-8.5,152c-3.9,0-7.1,3.2-7.2,7.2l0,0V173c0,3.9,3.2,7.1,7.2,7.2l0,0H43
					c3.9,0,7.1-3.2,7.2-7.2l0,0v-13.8c0-3.9-3.2-7.1-7.2-7.2l0,0H-8.5L-8.5,152z"/>
			</g>
		</g>
		<g>
			<g>
				<g>
					<path class="st1" d="M20.9,142c0,4.7-3.9,8.6-8.6,8.6h-51.5c-4.7,0-8.6-3.9-8.6-8.6v-13.8c0-4.7,3.9-8.6,8.6-8.6h51.5
						c4.7,0,8.6,3.9,8.6,8.6V142L20.9,142z"/>
				</g>
			</g>
			<g>
				<path class="st2" d="M20.9,143.5c0,3.9-3.6,7.1-8,7.1H-35c-4.4,0-8-3.2-8-7.1v-11.4c0-3.9,3.6-7.1,8-7.1h47.9c4.4,0,8,3.2,8,7.1
					L20.9,143.5L20.9,143.5z"/>
			</g>
			<g>
				<path class="st3" d="M-49.2,142v-13.8c0-5.5,4.5-10,10-10l0,0h51.5c5.5,0,10,4.5,10,10l0,0V142c0,5.5-4.5,10-10,10l0,0h-51.5
					C-44.7,152-49.2,147.5-49.2,142L-49.2,142z M-39.2,121.1c-3.9,0-7.1,3.2-7.2,7.2l0,0v13.8c0,3.9,3.2,7.1,7.2,7.2l0,0h51.5
					c3.9,0,7.1-3.2,7.2-7.2l0,0v-13.8c0-3.9-3.2-7.1-7.2-7.2l0,0H-39.2L-39.2,121.1z"/>
			</g>
		</g>
		<g>
			<g>
				<g>
					<path class="st1" d="M89.7,142c0,4.7-3.9,8.6-8.6,8.6H29.7c-4.7,0-8.6-3.9-8.6-8.6v-13.8c0-4.7,3.9-8.6,8.6-8.6h51.5
						c4.7,0,8.6,3.9,8.6,8.6L89.7,142L89.7,142z"/>
				</g>
			</g>
			<g>
				<path class="st2" d="M89.7,143.5c0,3.9-3.6,7.1-8,7.1H33.8c-4.4,0-8-3.2-8-7.1v-11.4c0-3.9,3.6-7.1,8-7.1h47.9
					c4.4,0,8,3.2,8,7.1V143.5z"/>
			</g>
			<g>
				<path class="st3" d="M19.7,142v-13.8c0-5.5,4.5-10,10-10l0,0h51.5c5.5,0,10,4.5,10,10l0,0V142c0,5.5-4.5,10-10,10l0,0H29.7
					C24.2,152,19.7,147.5,19.7,142L19.7,142z M29.7,121.1c-3.9,0-7.1,3.2-7.1,7.2l0,0v13.8c0,3.9,3.2,7.1,7.1,7.2l0,0h51.5
					c3.9,0,7.1-3.2,7.2-7.2l0,0v-13.8c0-3.9-3.2-7.1-7.2-7.2l0,0H29.7L29.7,121.1z"/>
			</g>
		</g>
	</g>
	<g>
		<g>
			<circle class="st4" cx="63.1" cy="141.1" r="13.2"/>
			<path class="st3" d="M48,141.1c0-8.4,6.8-15.1,15.1-15.1l0,0c8.4,0,15.1,6.8,15.1,15.1l0,0c0,8.4-6.8,15.1-15.1,15.1l0,0
				C54.7,156.3,48,149.5,48,141.1L48,141.1z M51.9,141.1c0,6.2,5,11.2,11.2,11.2l0,0c6.2,0,11.2-5,11.2-11.2l0,0
				c0-6.2-5-11.2-11.2-11.2l0,0C56.9,129.9,51.9,134.9,51.9,141.1L51.9,141.1z"/>
		</g>
		<g>
			<g>
				<circle class="st4" cx="101.9" cy="224.2" r="29.5"/>
			</g>
			<g>
				<path class="st3" d="M70.4,224.2c0-17.4,14.1-31.4,31.4-31.4l0,0c17.4,0,31.4,14.1,31.4,31.4l0,0c0,17.4-14.1,31.4-31.4,31.4
					l0,0C84.5,255.6,70.4,241.6,70.4,224.2L70.4,224.2z M74.3,224.2c0,15.2,12.3,27.5,27.5,27.5l0,0c15.2,0,27.5-12.3,27.5-27.5l0,0
					c0-15.2-12.3-27.5-27.5-27.5l0,0C86.7,196.7,74.4,209,74.3,224.2L74.3,224.2z"/>
			</g>
		</g>
		<g>
			<g>
				<polygon class="st5" points="-63.3,237.5 -54.5,233.2 17.1,378.6 8.3,382.9 				"/>
			</g>
			<g>
				<polygon class="st5" points="-41.8,237.5 -33,233.2 38.6,378.6 29.8,382.9 				"/>
			</g>
			<g>
				<g>
					<path class="st3" d="M-65,238.4l1.8-0.9l0.9,1.8l-0.9-1.8L-65,238.4l-0.9-1.8l12.3-6l73.3,148.9l-12.3,6L-65,238.4L-65,238.4z
						 M9.2,380.3l5.3-2.6l-69.9-141.9l-5.3,2.6L9.2,380.3L9.2,380.3z"/>
				</g>
			</g>
			<g>
				<g>
					<path class="st3" d="M-43.5,238.4l1.8-0.9l0.9,1.8l-0.9-1.8L-43.5,238.4l-0.9-1.8l12.3-6l73.3,148.9l-12.3,6L-43.5,238.4
						L-43.5,238.4z M30.7,380.3l5.3-2.6l-69.9-141.9l-5.3,2.6L30.7,380.3L30.7,380.3z"/>
				</g>
			</g>
		</g>
		<g>
			<g>
				<polygon class="st5" points="-50.8,255 -55.8,246.6 83.1,163.1 88.1,171.5 				"/>
			</g>
			<g>
				<polygon class="st5" points="-52.6,233.5 -57.6,225.2 81.3,141.7 86.3,150.1 				"/>
			</g>
			<g>
				<g>
					<path class="st3" d="M-49.8,256.6l-1-1.7l1.7-1l-1.7,1L-49.8,256.6l-1.7,1l-7-11.7l142.2-85.5l7,11.7L-49.8,256.6L-49.8,256.6z
						 M85.4,170.8l-3-5l-135.5,81.5l3,5L85.4,170.8L85.4,170.8z"/>
				</g>
			</g>
			<g>
				<g>
					<path class="st3" d="M-51.6,235.2l-1-1.7l1.7-1l-1.7,1L-51.6,235.2l-1.7,1l-7-11.7L81.9,139l7,11.7L-51.6,235.2L-51.6,235.2z
						 M83.6,149.4l-3-5l-135.5,81.4l3,5L83.6,149.4L83.6,149.4z"/>
				</g>
			</g>
		</g>
		<g>
			<path class="st5" d="M-24.4,238c0,11.6-9.4,21-21,21s-21-9.4-21-21s9.4-21,21-21S-24.4,226.4-24.4,238z"/>
		</g>
		<circle class="st3" cx="-45.5" cy="238" r="3.3"/>
		<g>
			<path class="st3" d="M-56.9,238c0-6.3,5.1-11.5,11.5-11.5l0,0c6.3,0,11.5,5.1,11.5,11.5l0,0c0,6.3-5.1,11.5-11.5,11.5l0,0
				C-51.8,249.5-56.9,244.4-56.9,238L-56.9,238z M-53,238c0,4.2,3.4,7.6,7.6,7.6l0,0c4.2,0,7.6-3.4,7.6-7.6l0,0
				c0-4.2-3.4-7.6-7.6-7.6l0,0C-49.6,230.5-53,233.9-53,238L-53,238z"/>
		</g>
		<g>
			<path class="st3" d="M-68.4,238c0-12.7,10.3-23,23-23l0,0c12.7,0,23,10.3,23,23l0,0c0,12.7-10.3,23-23,23l0,0
				C-58.1,261-68.4,250.7-68.4,238L-68.4,238z M-64.5,238c0,10.5,8.5,19,19.1,19.1l0,0c10.5,0,19-8.5,19.1-19.1l0,0
				c0-10.5-8.5-19-19.1-19.1l0,0C-56,219-64.5,227.5-64.5,238L-64.5,238z"/>
		</g>
		<path class="st5" d="M150.3,196.6c-2.4-5.3-7.2-8.8-12.5-9.9c-17.1-4.2-32.2-15.9-40.1-33.1c-1.2-2.6-2.2-5.2-3-7.8h-0.1
			c-0.2-0.7-0.4-1.4-0.8-2.1c-3.2-7-11.2-10.4-18.4-7.9v-0.1l-22.8,10.5c-7.5,3.5-10.8,12.3-7.3,19.8c0.3,0.7,0.7,1.3,1.1,1.9l0,0
			c1.5,2.3,2.9,4.8,4,7.3c7.8,17,7,35.7-0.6,51.4c-3,4.9-3.6,11.1-1,16.7c4.1,8.9,14.6,12.7,23.4,8.6c0.1-0.1,0.3-0.1,0.4-0.2l0,0
			l70-32.2l0,0C150.8,215.2,154.2,205.1,150.3,196.6z"/>
		<path class="st6" d="M142.6,219.5c8.2-4.4,11.6-14.4,7.7-22.9c-2.4-5.3-7.2-8.8-12.5-9.9c-17.1-4.2-32.2-15.9-40.1-33.1
			c-1.2-2.6-2.2-5.2-3-7.8h-0.1c-0.2-0.7-0.4-1.4-0.8-2.1c-2.8-6.1-9.1-9.3-15.4-8.6l-10,4.6c-8.9,4.1-12.8,14.6-8.7,23.5
			c0.4,0.8,0.8,1.6,1.3,2.3l0,0c1.8,2.8,3.4,5.6,4.8,8.7c9.3,20.1,8.3,42.3-0.7,60.8c-3.4,5.4-4.2,12.3-1.7,18.6
			c2.9,0.2,5.9-0.3,8.7-1.6c0.1-0.1,0.3-0.1,0.4-0.2l0,0L142.6,219.5L142.6,219.5z"/>
		<g>
			<path class="st3" d="M47,244.2c-1.2-2.7-1.8-5.4-1.8-8.2l0,0c0-3.6,1-7.2,2.9-10.3l0,0c3.8-7.9,5.8-16.5,5.8-25.4l0,0
				c0-8.1-1.7-16.4-5.3-24.2l0,0c-1.1-2.5-2.5-4.9-3.9-7.1l0,0l-1-1.6l0.1-0.1c-0.1-0.2-0.2-0.3-0.3-0.5l0,0
				c-1.1-2.3-1.6-4.7-1.6-7.1l0,0c0-6.4,3.7-12.5,9.8-15.4l0,0l24.6-11.2l0.2,0.3c1.3-0.3,2.5-0.4,3.8-0.4l0,0
				c6.4,0,12.5,3.7,15.4,9.8l0,0c0.1,0.2,0.2,0.4,0.2,0.5l0,0l0.2-0.1l0.5,1.8c0.8,2.6,1.7,5.1,2.9,7.6l0,0
				c7.7,16.7,22.2,27.9,38.8,32.1l0,0c5.9,1.2,11.2,5.1,13.9,11l0,0l-1.8,0.8l-1.8,0.8c-2.2-4.7-6.4-7.8-11.1-8.8l0,0l0,0l0,0
				c-17.6-4.4-33.2-16.4-41.4-34.2l0,0c-1-2.1-1.8-4.2-2.5-6.3l0,0h-0.2l-0.5-1.8c-0.2-0.6-0.4-1.2-0.7-1.8l0,0
				c-2.2-4.8-6.9-7.6-11.8-7.6l0,0c-1.4,0-2.8,0.2-4.2,0.7l0,0l-0.7,0.2l-22,10.1c-4.8,2.2-7.6,6.9-7.6,11.8l0,0
				c0,1.8,0.4,3.7,1.2,5.4l0,0c0.3,0.6,0.6,1.1,1,1.7l0,0l1.1,1.6h-0.1c1.1,1.9,2.2,3.9,3.2,6l0,0c3.9,8.4,5.7,17.2,5.7,25.9l0,0
				c0,9.5-2.2,18.8-6.3,27.2l0,0v0.1l-0.1,0.1c-1.5,2.5-2.4,5.4-2.4,8.3l0,0c0,2.2,0.5,4.4,1.4,6.5l0,0c2.6,5.7,8.3,9.1,14.3,9.1
				l0,0c2.2,0,4.4-0.5,6.6-1.4l0,0c0.1,0,0.2-0.1,0.4-0.2l0,0l1.6-0.8v0.1l67.9-31.3l0.5-0.3c5.2-2.8,8.3-8.2,8.3-13.8l0,0
				c0-2.2-0.5-4.4-1.4-6.5l0,0l1.8-0.8l1.8-0.8c1.2,2.6,1.8,5.4,1.8,8.2l0,0c0,6.5-3.2,12.7-8.8,16.4l0,0l0.1,0.2l-72.1,33.2
				c0,0-0.1,0-0.1,0.1l0,0c-0.1,0-0.1,0.1-0.2,0.1l0,0l-0.9,0.4l0,0c-2.3,0.9-4.7,1.3-7.1,1.3l0,0C57.4,255.6,50.3,251.3,47,244.2
				L47,244.2z"/>
		</g>
		<g>
			<path class="st5" d="M75.3,393c0-11.7-9.7-21.3-21.5-21.3h-78.7c-11.8,0-21.5,9.6-21.5,21.3c0,0.1,0,0.1,0,0.2H75.3
				C75.3,393.1,75.3,393.1,75.3,393z"/>
		</g>
		<g>
			<path class="st5" d="M48.6,371.6c0-6.6-5.4-12-12.1-12H-7.7c-6.6,0-12.1,5.4-12.1,12v0.1L48.6,371.6
				C48.6,371.7,48.6,371.6,48.6,371.6z"/>
		</g>
		<path class="st6" d="M-44.9,387.2h77.2c7.1,0,12.9-5.3,12.9-11.7v-3.8h-70c-9.8,0-18.1,6.6-20.7,15.5
			C-45.3,387.2-45.1,387.2-44.9,387.2z"/>
		<path class="st6" d="M-18.9,368.4h43.4c4,0,7.2-3,7.2-6.6v-2.1H-7.7c-5.5,0-10.2,3.7-11.6,8.7C-19.2,368.4-19,368.4-18.9,368.4z"
			/>
		<path class="st7" d="M-24.9,371.7c-7.4,0-14,3.8-17.9,9.6h15.6c5.7,0,10.5-4.1,11.5-9.6H-24.9z"/>
		<path class="st7" d="M-7.7,359.6c-4.2,0-7.9,2.1-10.1,5.4H-9c3.2,0,5.9-2.3,6.5-5.4H-7.7z"/>
		<g>
			<g>
				<path class="st8" d="M75.3,393c0-11.7-9.7-21.3-21.5-21.3h-78.7c-11.8,0-21.5,9.6-21.5,21.3c0,0.1,0,0.1,0,0.2H75.3
					C75.3,393.1,75.3,393.1,75.3,393z"/>
			</g>
		</g>
		<g>
			<g>
				<path class="st8" d="M48.6,371.6c0-6.6-5.4-12-12.1-12H-7.7c-6.6,0-12.1,5.4-12.1,12v0.1L48.6,371.6
					C48.6,371.7,48.6,371.6,48.6,371.6z"/>
			</g>
		</g>
	</g>
	<g>
		<g>
			<g>
				<g>
					<path class="st9" d="M423,319.4c-0.8-1.8-2.4-3-4.1-3.4c-2.1-0.6-5.5-0.7-7-1.7c-1.8-1.2-0.6-5.5-0.6-5.5l0,0
						c0.3-1,0.2-2.1-0.3-3.1c-0.5-1.1-1.3-1.9-2.3-2.4l0,0c-0.2-0.1-0.5-0.2-0.7-0.2c-0.1,0-0.1,0-0.2,0c-2.1-0.6-3,0.2-6.4,0.3
						c-2.9,0.1-4.1-3.1-4.6-4.7c0-0.4-0.1-0.8-0.3-1.2c-0.7-1.6-2.5-2.5-4.1-2.2h-0.1c-9,2-11.8,0-15.6,0.6c-3.8,0.6-4.6,1-5.3,2.9
						c-0.7,2,3.4,3.2,5.2,5.3c1.4,1.7,1.7,5.1,1.8,6.5c0,0.6,0.1,1.2,0.3,1.8c0.6,1.3,1.8,2.1,3.2,2.2c1.7,0.3,4.7-1.3,6-0.8
						c1.4,0.5,2.4,1.6,0.6,4.6c-2.2,3.2-3,5.6-3,5.6l0,0c-0.4,1.1-0.4,2.4,0.1,3.7c0.5,1.1,1.4,1.9,2.4,2.4s2.6,0.4,4.4,3
						c1.5,2.3-0.6,5.7-1.5,7c-1.5,1.7-2,4.2-1,6.4c1.4,3,4.9,4.4,8,3c0.1,0,0.2-0.1,0.3-0.1l0,0c0,0,0,0,0.1,0
						c0.2-0.1,0.4-0.2,0.6-0.4c7.4-4.3,10.2-1.1,10.2-1.1c5.5-2.5,5.6-2.9,6.5-6.4c1.5-5.1,5.4-13,6.9-16.1
						C423.6,323.8,424,321.5,423,319.4z"/>
					<path class="st10" d="M418.9,316c-2.1-0.6-5.5-0.7-7-1.7c-1.8-1.2-0.6-5.5-0.6-5.5l0,0c0.3-1,0.2-2.1-0.3-3.1
						c-0.5-1.1-1.3-1.9-2.3-2.4l0,0c-0.2-0.1-0.5-0.2-0.7-0.2c-0.1,0-0.1,0-0.2-0.1c-2.1-0.6-3,0.2-6.4,0.3
						c-2.9,0.1-4.1-3.1-4.6-4.7c0-0.4-0.1-0.8-0.3-1.2c-0.3-0.7-0.8-1.3-1.5-1.7c-2.5,3.5-8.9,5.9-14.8,3.9c-7.8-2.6-7.3-0.3-6-0.1
						c1.3,0.1,5.8,3.8,4.7,7.7c-1.1,3.8,7.4-1.4,9,0.2s0,3.5,3.2,1.8s5.1-1.5,1.6,3.9c-3.6,5.4,3.4,2.4,6.5,1.7
						c3.1-0.7,0.6,4.3-7.6,6.3c-8.3,2,3.6,1.9,11,3.9s-1.3,3-5.3,4.1s-2,3.4,0.5,2.6c2.6-0.8,8.9,0.7,6.9,4.1s-9.8,3.1-10.7,5.8
						c-0.9,2.7,1.9,2.4,10.8,1.6c6.3-0.6,6.5,2.2,6.2,3.9c3.5-1.7,3.7-2.4,4.4-5.4c1.5-5.1,5.4-13,6.9-16.1c1.2-1.7,1.6-4,0.6-6
						C422.2,317.6,420.7,316.4,418.9,316z"/>
					<path class="st9" d="M418.7,321.7c0.8,1.9-1.7,2.1-3.3,4.1c-3,3.8-4.2,4-5.1,2.1c-0.8-1.9,0.4-6.7,2.7-7.7
						C415.3,319.2,417.8,319.9,418.7,321.7z"/>
					<path class="st9" d="M408.1,308.1c-0.1,1.7-2,0.9-3.9,1.7c-3.5,1.6-4.5,1.3-4.4-0.4c0.1-1.7,2.8-4.7,4.8-4.6
						C406.6,305,408.2,306.5,408.1,308.1z"/>
					<path class="st11" d="M402.7,317.5c-2-2.9-4.1-5.4-6.1-7.5c-0.4-0.9-0.9-2.6-0.1-4.6c0.9-2.5-2.7-0.8-3,1.7
						c-2.1-1.8-3.9-3-5.2-3.9c-0.1-0.6-0.1-1.3,0.2-2.1c0.6-1.6-1.7-0.5-1.9,1.1c0,0-0.1,0-0.1-0.1h-0.1l0,0l0,0
						c-0.2-0.1-0.5-0.1-0.8,0c-0.5,0.2-0.7,0.8-0.5,1.3c0.1,0.3,0.4,0.5,0.7,0.6c0.1,0,0.2,0.1,0.3,0.1c2.5,1.4,12.9,7.8,18.9,21.2
						c1.8,4,3.2,8.6,3.9,14c0,0.1,0,0.3,0.1,0.4c0.2,0.5,0.8,0.7,1.3,0.5s0.7-0.8,0.5-1.3c-0.1-0.5-0.1-1-0.2-1.4l0,0
						c0,0,0-2.6,2.2-4.3c2-1.5-1.6-2-3.2-0.2c-0.8-3-1.8-5.8-2.9-8.4c-0.2-0.5-0.5-1.1-0.8-1.6c-0.1-1-0.3-4.2,2-7
						C410.5,312.9,403.9,313.7,402.7,317.5z"/>
				</g>
				<g>
					<path class="st9" d="M417.4,314.7c0.9-2.1,2.8-3.5,4.8-4c2.4-0.7,6.4-0.9,8.2-2c2.1-1.4,0.7-6.4,0.7-6.4l0,0
						c-0.3-1.2-0.2-2.5,0.3-3.7c0.6-1.3,1.6-2.2,2.7-2.8l0,0c0.3-0.1,0.5-0.2,0.8-0.3c0.1,0,0.1,0,0.2-0.1c2.4-0.7,3.5,0.2,7.4,0.3
						c3.4,0.1,4.8-3.6,5.3-5.5c0-0.5,0.2-0.9,0.4-1.4c0.9-1.9,2.9-2.9,4.8-2.5c0.1,0,0.1,0,0.2,0c10.5,2.4,13.9,0,18.3,0.7
						c4.5,0.7,5.4,1.1,6.3,3.4c0.8,2.3-3.9,3.7-6.1,6.2c-1.7,2-2,6-2.1,7.6c0,0.7-0.1,1.4-0.4,2.1c-0.7,1.5-2.1,2.5-3.7,2.6
						c-2,0.3-5.5-1.5-7-0.9c-1.6,0.6-2.8,1.9-0.7,5.4c2.6,3.7,3.5,6.6,3.5,6.6l0,0c0.5,1.3,0.5,2.9-0.1,4.3
						c-0.6,1.3-1.6,2.3-2.8,2.8c-1.2,0.6-3.1,0.4-5.1,3.5c-1.8,2.7,0.7,6.7,1.8,8.2c1.8,2,2.3,4.9,1.1,7.5c-1.6,3.6-5.8,5.2-9.3,3.5
						c-0.1,0-0.2-0.1-0.3-0.1l0,0c0,0,0,0-0.1,0c-0.2-0.1-0.5-0.3-0.7-0.4c-8.7-5-12-1.2-12-1.2c-6.4-2.9-6.5-3.4-7.6-7.4
						c-1.8-5.9-6.3-15.2-8.1-18.9C416.7,319.8,416.3,317.1,417.4,314.7z"/>
					<path class="st10" d="M422.2,310.7c2.4-0.7,6.4-0.9,8.2-2c2.1-1.4,0.7-6.4,0.7-6.4l0,0c-0.3-1.2-0.2-2.5,0.3-3.7
						c0.6-1.3,1.6-2.2,2.7-2.8l0,0c0.3-0.1,0.5-0.2,0.8-0.3c0.1,0,0.1,0,0.2-0.1c2.4-0.7,3.5,0.2,7.4,0.3c3.4,0.1,4.8-3.6,5.3-5.5
						c0-0.5,0.2-0.9,0.4-1.4c0.4-0.8,1-1.5,1.7-1.9c3,4.1,10.5,6.9,17.3,4.6c9.1-3,8.5-0.3,7-0.2c-1.5,0.1-6.8,4.5-5.5,9
						s-8.7-1.6-10.5,0.2c-1.9,1.8,0,4.1-3.8,2.1s-6-1.8-1.8,4.5s-3.9,2.8-7.6,2s-0.7,5,9,7.4s-4.2,2.2-12.9,4.5
						c-8.7,2.3,1.5,3.5,6.2,4.8s2.4,4-0.6,3c-3-0.9-10.4,0.8-8,4.8s11.5,3.6,12.6,6.8c1.1,3.2-2.2,2.8-12.6,1.9
						c-7.4-0.7-7.7,2.6-7.2,4.6c-4.1-2-4.3-2.9-5.2-6.3c-1.8-5.9-6.3-15.2-8.1-18.9c-1.5-2-1.8-4.7-0.8-7.1
						C418.3,312.6,420.2,311.2,422.2,310.7z"/>
					<path class="st9" d="M422.5,317.4c-1,2.2,2,2.5,3.8,4.8c3.5,4.5,4.9,4.6,5.9,2.5c1-2.2-0.4-7.8-3.1-9
						C426.5,314.4,423.5,315.2,422.5,317.4z"/>
					<path class="st9" d="M434.9,301.5c0.1,1.9,2.4,1.1,4.5,2c4.2,1.9,5.3,1.5,5.2-0.4c-0.1-1.9-3.2-5.5-5.6-5.4
						C436.6,297.8,434.8,299.5,434.9,301.5z"/>
					<path class="st11" d="M441.3,312.5c2.3-3.4,4.8-6.3,7.1-8.7c0.4-1,1-3,0.2-5.4c-1.1-2.9,3.1-1,3.5,2c2.4-2.1,4.6-3.6,6.1-4.5
						c0.1-0.7,0.2-1.5-0.2-2.5c-0.7-1.9,2-0.6,2.2,1.3c0,0,0.1,0,0.1-0.1h0.1l0,0l0,0c0.3-0.1,0.6-0.1,0.9,0
						c0.6,0.3,0.8,0.9,0.6,1.5c-0.2,0.4-0.5,0.6-0.8,0.7c-0.1,0-0.2,0.1-0.3,0.2c-2.9,1.6-15.1,9.1-22.2,24.9
						c-2.1,4.7-3.8,10.1-4.6,16.4c0,0.2,0,0.3-0.1,0.5c-0.3,0.6-0.9,0.8-1.5,0.6c-0.6-0.3-0.8-0.9-0.6-1.5c0.1-0.6,0.2-1.1,0.3-1.7
						l0,0c0,0,0-3-2.6-5.1c-2.3-1.8,1.9-2.3,3.7-0.3c0.9-3.6,2.1-6.8,3.4-9.8c0.3-0.6,0.6-1.3,0.9-1.9c0.2-1.2,0.4-4.9-2.3-8.2
						C432.1,307.1,439.8,308,441.3,312.5z"/>
				</g>
				<g>
					<path class="st12" d="M448.1,322c0-2.6-1.2-4.9-3.1-6.4c-2.2-1.8-6.3-3.9-7.5-5.9c-1.5-2.4,2.2-7,2.2-7l0,0
						c0.9-1.1,1.4-2.5,1.4-3.9c0-1.6-0.6-3-1.5-4.1l0,0c-0.2-0.2-0.5-0.5-0.7-0.6c-0.1,0-0.1-0.1-0.2-0.1c-2.2-1.8-3.7-1.4-7.8-3.1
						c-3.5-1.5-3.3-6-3-8.2c0.2-0.5,0.3-1,0.3-1.6c0-2.4-1.6-4.3-3.8-4.9c-0.1,0-0.1-0.1-0.2-0.1c-12-2.4-14.3-6.4-19.3-7.8
						c-4.9-1.4-6.1-1.4-8.1,0.6c-1.9,2,2.3,5.7,3.4,9.3c0.8,2.8-0.7,7.1-1.4,8.8c-0.4,0.7-0.6,1.5-0.6,2.4c0,1.9,1.1,3.6,2.6,4.4
						c1.9,1.3,6.4,1,7.7,2.3c1.4,1.4,2,3.3-1.7,5.9c-4.4,2.6-6.7,5.2-6.7,5.2l0,0c-1.1,1.2-1.8,2.7-1.8,4.5c0,1.6,0.6,3.1,1.6,4.2
						c0.9,1.2,3,1.9,3.7,6c0.6,3.6-3.8,6.6-5.7,7.7c-2.8,1.3-4.7,4-4.7,7.3c0,4.4,3.6,8,8,8c0.1,0,0.3,0,0.4,0l0,0h0.1
						c0.3,0,0.6-0.1,0.9-0.1c11.3-1.2,13,4.3,13,4.3c8,0,8.3-0.5,11.3-4.2c4.6-5.3,13.5-12.8,17.2-15.8
						C446.4,327.6,448.1,325,448.1,322z"/>
					<path class="st13" d="M444.9,315.6c-2.2-1.8-6.3-3.9-7.5-5.9c-1.5-2.4,2.2-7,2.2-7l0,0c0.9-1.1,1.4-2.5,1.4-3.9
						c0-1.6-0.6-3-1.5-4.1l0,0c-0.2-0.2-0.5-0.5-0.7-0.6c-0.1,0-0.1-0.1-0.2-0.1c-2.2-1.8-3.7-1.4-7.8-3.1c-3.5-1.5-3.3-6-3-8.2
						c0.2-0.5,0.3-1,0.3-1.6c0-1-0.3-2-0.9-2.8c-5,2.9-14,2.3-20-3.3c-8-7.4-8.7-4.3-7.2-3.4s4.9,7.8,1.5,11.9s9.7,2.3,10.8,5.1
						s-1.9,4.3,2.9,4s7,1-0.2,5.6c-7.3,4.6,2.8,4.7,6.9,5.6c4.2,0.9-1.6,5.6-12.7,3.5c-11.1-2,3.3,4.3,11.2,10.7
						c7.9,6.4-3.2,2.9-8.7,2c-5.4-0.9-4.3,3-0.7,3.4c3.5,0.4,10.4,5.7,6.1,8.7s-13.6-1.6-16.1,1.2c-2.6,2.8,1,4,12.2,7.8
						c7.9,2.7,6.7,6.2,5.3,8.1c5.1-0.2,5.8-1,8.3-4.1c4.6-5.3,13.5-12.8,17.2-15.8c2.4-1.4,4.1-4,4.1-7
						C448.1,319.4,446.8,317.1,444.9,315.6z"/>
					<path class="st12" d="M441.5,322.4c0,2.7-3.2,1.6-6.2,3.2c-5.7,3-7.3,2.5-7.3-0.2s4.1-7.9,7.4-7.9
						C438.8,317.5,441.5,319.7,441.5,322.4z"/>
					<path class="st12" d="M436.2,300.2c-1,2-2.9,0-5.6,0c-5.2,0-6.2-0.9-5.1-2.9c1-2,5.9-4.2,8.3-2.9
						C436,295.6,437.2,298.2,436.2,300.2z"/>
					<path class="st14" d="M424.4,308.6c-0.8-4.6-2-8.8-3.3-12.3c0-1.2,0.4-3.6,2.3-5.6c2.5-2.5-2.8-2.5-4.5,0.4
						c-1.6-3.3-3.1-5.8-4.2-7.5c0.2-0.7,0.5-1.6,1.3-2.5c1.6-1.6-1.8-1.6-2.9,0.3l-0.1-0.1l-0.1-0.1l0,0l0,0c-0.2-0.3-0.6-0.4-1-0.4
						c-0.7,0-1.3,0.6-1.3,1.3c0,0.4,0.2,0.8,0.5,1.1c0.1,0.1,0.1,0.2,0.2,0.3c2.2,3,11.4,16.4,11.4,36c0,5.8-0.8,12.2-2.8,19.1
						c-0.1,0.2-0.1,0.3-0.1,0.5c0,0.7,0.6,1.3,1.3,1.3c0.7,0,1.3-0.6,1.3-1.3c0.2-0.6,0.3-1.2,0.5-1.9l0,0c0,0,1.4-3.1,5-4
						c3.2-0.8-0.9-3.3-3.7-2c0.7-4.1,1-8,1-11.7c0-0.8,0-1.6,0-2.4c0.4-1.4,1.9-5.2,6.2-7.3C436.4,307.3,428,304.6,424.4,308.6z"/>
				</g>
				<path class="st15" d="M437.7,346.3c-0.7,0-1.3,0.2-1.8,0.5c-0.7-1.4-2.2-2.3-3.9-2.3c-0.8,0-1.5,0.2-2.2,0.6
					c-0.5-0.9-1.4-1.5-2.5-1.5c-1,0-1.9,0.5-2.4,1.4c-0.4-0.2-0.9-0.3-1.4-0.3c-0.7,0-1.3,0.2-1.8,0.5c-0.7-1.5-2.2-2.5-4-2.5
					c-1.7,0-3.2,1-3.9,2.4c-0.3-0.1-0.7-0.2-1.1-0.2c-1.3,0-2.4,0.9-2.8,2.1c-0.4-0.3-0.9-0.4-1.5-0.4c-0.5,0-1,0.2-1.5,0.4
					c-0.8-0.9-2-1.5-3.3-1.5c-2.4,0-4.4,2-4.4,4.4c0,2.3,1.8,4.2,4.1,4.4l0,0h34.3l0,0h0.1c2.2,0,3.9-1.8,3.9-3.9
					C441.6,348.1,439.9,346.3,437.7,346.3z"/>
			</g>
			<g>
				<g>
					<path class="st16" d="M457.3,371.1c0,10.4-9.5,18.9-21.2,18.9h-32.4c-11.6,0-21.1-8.5-21.1-18.9s9.5-18.9,21.1-18.9h32.4
						C447.8,352.2,457.3,360.7,457.3,371.1z"/>
				</g>
			</g>
			<path class="st17" d="M435.1,352.2h-31.3c-11.6,0-21.1,8.5-21.1,18.9c0,4.7,1.9,9,5.1,12.3h31.3c11.6,0,21.2-8.5,21.2-18.9
				C440.2,359.8,438.3,355.5,435.1,352.2z"/>
			<g>
				<g>
					<path class="st18" d="M416.1,373.7c0,3.9-3.6,7.1-8,7.1h-12.2c-4.4,0-8-3.2-8-7.1s3.6-7.1,8-7.1h12.2
						C412.5,366.6,416.1,369.8,416.1,373.7z"/>
				</g>
			</g>
			<g>
				<g>
					<path class="st18" d="M434.3,357.9c0,1.8-1.7,3.3-3.7,3.3h-5.7c-2,0-3.7-1.5-3.7-3.3s1.7-3.3,3.7-3.3h5.7
						C432.6,354.6,434.3,356.1,434.3,357.9z"/>
				</g>
			</g>
			<g>
				<g>
					<path class="st18" d="M411.2,356.4c0,1.4-1.2,2.5-2.8,2.5h-4.2c-1.5,0-2.8-1.1-2.8-2.5s1.2-2.5,2.8-2.5h4.2
						C409.9,353.9,411.2,355,411.2,356.4z"/>
				</g>
			</g>
			<g>
				<g>
					<path class="st19" d="M443,385.4c0,1.8-1.7,3.3-3.7,3.3h-5.7c-2,0-3.7-1.5-3.7-3.3s1.7-3.3,3.7-3.3h5.7
						C441.3,382.1,443,383.6,443,385.4z"/>
				</g>
			</g>
		</g>
		<path class="st20" d="M449.9,384.9h-59.7c-0.2,0-0.5,0-0.7,0.1c3.8,3.1,8.8,5,14.3,5h32.4c5.5,0,10.5-1.9,14.3-5
			C450.3,385,450.1,384.9,449.9,384.9z"/>
		<path class="st17" d="M453.7,390c0,2.1-1.7,3.8-3.8,3.8h-59.7c-2.1,0-3.8-1.7-3.8-3.8l0,0c0-2.1,1.7-3.8,3.8-3.8h59.7
			C452,386.1,453.7,387.9,453.7,390L453.7,390z"/>
		<path class="st20" d="M390.2,391.7c-1,0-1.9,0.4-2.6,1.1c0.7,0.6,1.6,1.1,2.6,1.1h59.7c1,0,1.9-0.4,2.6-1.1
			c-0.7-0.6-1.6-1.1-2.6-1.1H390.2z"/>
	</g>
	<path class="st1" d="M331.2,254.5c0-2.7-2.2-4.9-4.9-4.9H130c-2.7,0-4.9,2.2-4.9,4.9v41.6l0,0v87.4h206v-87.4l0,0v-41.6H331.2z"/>
	<path class="st3" d="M333.2,255.6c0-4.4-3.6-8-8-8H131.3c-4.4,0-8,3.6-8,8v41.1l0,0v89.6h210V255.6H333.2z M330,383H126.4v-86.4
		l0,0v-41.1c0-2.6,2.2-4.8,4.8-4.8h193.9c2.6,0,4.8,2.2,4.8,4.8v41.1l0,0L330,383L330,383z"/>
	<g>
		<g>
			<path class="st1" d="M350.6,386.2c0-0.9-0.7-1.6-1.6-1.6H108c-0.9,0-1.6,0.7-1.6,1.6v7c0,0.9,0.7,1.6,1.6,1.6h240.9
				c0.9,0,1.6-0.7,1.6-1.6v-7H350.6z"/>
		</g>
	</g>
	<path class="st2" d="M106.4,390v3.2c0,0.9,0.7,1.6,1.6,1.6h240.9c0.9,0,1.6-0.7,1.6-1.6V390H106.4z"/>
	<g>
		<path class="st21" d="M324.3,375.3c0,0.9-0.7,1.6-1.6,1.6H134.3c-0.9,0-1.6-0.7-1.6-1.6V259.2c0-0.9,0.7-1.6,1.6-1.6h188.4
			c0.9,0,1.6,0.7,1.6,1.6V375.3L324.3,375.3z"/>
	</g>
	<g>
		<g>
			<path class="st3" d="M108,396.4c-1.8,0-3.2-1.4-3.2-3.2l0,0v-7c0-1.8,1.4-3.2,3.2-3.2l0,0h240.9c1.8,0,3.2,1.4,3.2,3.2l0,0v7
				c0,1.8-1.4,3.2-3.2,3.2l0,0H108L108,396.4z M108,386.2v7l0,0h240.9l0,0l0,0v-7l0,0H108C108,386.1,108,386.2,108,386.2L108,386.2z
				"/>
		</g>
	</g>
	<g>
		<g>
			<path class="st22" d="M-4.8,410.7v33.5c-1.9-1.5-4.1-2.4-6.5-2.4c-6.8,0-12.3,7-12.3,15.7c0,0.2,0,0.3,0,0.5h-0.5v-47.3
				L-4.8,410.7L-4.8,410.7z"/>
			<rect x="-25.2" y="411.3" class="st23" width="21.1" height="10.7"/>
			<g>
				<g>
					<path class="st3" d="M-5,453.7c0.9,0,1.6-0.7,1.6-1.6V412c0-0.9-0.7-1.6-1.6-1.6l0,0c-0.9,0-1.6,0.7-1.6,1.6v40.1
						C-6.6,452.9-5.8,453.7-5,453.7L-5,453.7z"/>
				</g>
			</g>
			<g>
				<g>
					<path class="st3" d="M-24.1,462.3c0.9,0,1.6-0.7,1.6-1.6V412c0-0.9-0.7-1.6-1.6-1.6l0,0c-0.9,0-1.6,0.7-1.6,1.6v48.7
						C-25.7,461.6-25,462.3-24.1,462.3L-24.1,462.3z"/>
				</g>
			</g>
			<g>
				<g>
					<path class="st3" d="M-24.1,471.6c0.9,0,1.6-0.7,1.6-1.6v-1.1c0-0.9-0.7-1.6-1.6-1.6s-1.6,0.7-1.6,1.6v1.1
						C-25.7,470.9-25,471.6-24.1,471.6z"/>
				</g>
			</g>
			<g>
				<g>
					<path class="st3" d="M-5,471.6c0.9,0,1.6-0.7,1.6-1.6v-9.1c0-0.9-0.7-1.6-1.6-1.6l0,0c-0.9,0-1.6,0.7-1.6,1.6v9.1
						C-6.6,470.9-5.8,471.6-5,471.6L-5,471.6z"/>
				</g>
			</g>
		</g>
		<g>
			<path class="st22" d="M393.5,410.7v33.5c1.9-1.5,4.1-2.4,6.5-2.4c6.8,0,12.3,7,12.3,15.7c0,0.2,0,0.3,0,0.5h0.5v-47.3
				L393.5,410.7L393.5,410.7z"/>
			<rect x="393.2" y="411.3" class="st23" width="21.1" height="10.7"/>
			<g>
				<g>
					<path class="st3" d="M393.7,453.7c-0.9,0-1.6-0.7-1.6-1.6V412c0-0.9,0.7-1.6,1.6-1.6l0,0c0.9,0,1.6,0.7,1.6,1.6v40.1
						C395.3,452.9,394.6,453.7,393.7,453.7L393.7,453.7z"/>
				</g>
			</g>
			<g>
				<g>
					<path class="st3" d="M412.8,462.3c-0.9,0-1.6-0.7-1.6-1.6V412c0-0.9,0.7-1.6,1.6-1.6l0,0c0.9,0,1.6,0.7,1.6,1.6v48.7
						C414.4,461.6,413.7,462.3,412.8,462.3L412.8,462.3L412.8,462.3z"/>
				</g>
			</g>
			<g>
				<g>
					<path class="st3" d="M412.8,471.6c-0.9,0-1.6-0.7-1.6-1.6v-1.1c0-0.9,0.7-1.6,1.6-1.6s1.6,0.7,1.6,1.6v1.1
						C414.4,470.9,413.7,471.6,412.8,471.6z"/>
				</g>
			</g>
			<g>
				<g>
					<path class="st3" d="M393.7,471.6c-0.9,0-1.6-0.7-1.6-1.6v-9.1c0-0.9,0.7-1.6,1.6-1.6l0,0c0.9,0,1.6,0.7,1.6,1.6v9.1
						C395.3,470.9,394.6,471.6,393.7,471.6L393.7,471.6z"/>
				</g>
			</g>
		</g>
		<g>
			<g>
				<g>
					<path class="st24" d="M466.3,404.3c0,3.5-2.9,6.4-6.4,6.4H-71.2c-3.5,0-6.4-2.9-6.4-6.4v-2.7c0-3.5,2.9-6.4,6.4-6.4h531.1
						c3.5,0,6.4,2.9,6.4,6.4L466.3,404.3L466.3,404.3z"/>
				</g>
			</g>
			<path class="st22" d="M-77.6,404.2v0.1c0,3.5,2.9,6.4,6.4,6.4h531.1c3.5,0,6.4-2.9,6.4-6.4v-0.1H-77.6z"/>
			<g>
				<g>
					<g>
						<path class="st3" d="M-71.2,412.3c-4.4,0-8-3.6-8-8l0,0v-2.7c0-4.4,3.6-8,8-8l0,0h531.1c4.4,0,8,3.6,8,8l0,0v2.7
							c0,4.4-3.6,8-8,8l0,0H-71.2L-71.2,412.3z M-76,401.6v2.7c0,2.6,2.2,4.8,4.8,4.8l0,0h531.1c2.6,0,4.8-2.2,4.8-4.8l0,0v-2.7
							c0-2.6-2.2-4.8-4.8-4.8l0,0H-71.2C-73.8,396.8-76,399-76,401.6L-76,401.6z"/>
					</g>
				</g>
			</g>
		</g>
	</g>
	<g>
		<g>
			<path class="st1" d="M-44.7,365.8c-5.3,0-9.6,4.3-9.6,9.6v6.8c0,5.3,4.3,9.6,9.6,9.6h73.3v-26H-44.7z"/>
			<path class="st25" d="M-44.7,391.9h73.3v-5.3h-81.9C-51.7,389.7-48.4,391.9-44.7,391.9z"/>
			<g>
				<g>
					<g>
						<path class="st3" d="M-38.5,380.6c-0.9,0-1.6-0.7-1.6-1.6l0,0c0-0.9,0.7-1.6,1.6-1.6h31.2c0.9,0,1.6,0.7,1.6,1.6l0,0
							c0,0.9-0.7,1.6-1.6,1.6H-38.5z"/>
					</g>
				</g>
			</g>
			<g>
				<g>
					<g>
						<path class="st3" d="M0.2,380.6c-0.9,0-1.6-0.7-1.6-1.6l0,0c0-0.9,0.7-1.6,1.6-1.6h2.7c0.9,0,1.6,0.7,1.6,1.6l0,0
							c0,0.9-0.7,1.6-1.6,1.6H0.2z"/>
					</g>
				</g>
			</g>
			<g>
				<g>
					<g>
						<path class="st3" d="M19.2,380.6c-0.9,0-1.6-0.7-1.6-1.6l0,0c0-0.9,0.7-1.6,1.6-1.6h8.2c0.9,0,1.6,0.7,1.6,1.6l0,0
							c0,0.9-0.7,1.6-1.6,1.6H19.2z"/>
					</g>
				</g>
			</g>
			<path class="st3" d="M34.6,390.5h-4.7v-23.6h4.7c0.9,0,1.6-0.7,1.6-1.6s-0.7-1.6-1.6-1.6H0.5l0,0h-43.9
				c-7.1,0-12.8,5.8-12.8,12.8v4.4c0,7.1,5.8,12.8,12.8,12.8h77.9c0.9,0,1.6-0.7,1.6-1.6l0,0C36.2,391.3,35.5,390.5,34.6,390.5z
				 M-43.3,390.5c-5.3,0-9.6-4.3-9.6-9.6v-4.4c0-5.3,4.3-9.6,9.6-9.6h70.1v23.6H-43.3L-43.3,390.5z"/>
			<g>
				<polygon class="st26" points="-23.4,396.9 -31.4,392.9 -39.4,396.9 -39.4,379 -23.4,379 				"/>
				<g>
					<g>
						<path class="st3" d="M-41,377.4h19.2V397v2.6l-9.7-4.9l-9.6,4.9v-22.2H-41z M-23.4,396.9l0.7-1.4L-23.4,396.9L-23.4,396.9z
							 M-25,394.3v-13.7h-12.8v13.7l6.4-3.2L-25,394.3L-25,394.3z"/>
					</g>
				</g>
			</g>
		</g>
		<g>
			<path class="st1" d="M12.9,342.1c4.1,0,7.5,3.4,7.5,7.5v5.3c0,4.1-3.4,7.5-7.5,7.5H-44v-20.2L12.9,342.1L12.9,342.1z"/>
			<path class="st25" d="M12.9,362.3H-44v-4.1h63.6C18.3,360.6,15.8,362.3,12.9,362.3z"/>
			<g>
				<g>
					<g>
						<path class="st3" d="M8,353.6c0.7,0,1.2-0.6,1.2-1.2l0,0c0-0.7-0.6-1.2-1.2-1.2h-24.2c-0.7,0-1.2,0.6-1.2,1.2l0,0
							c0,0.7,0.6,1.2,1.2,1.2H8z"/>
					</g>
				</g>
			</g>
			<g>
				<g>
					<g>
						<path class="st3" d="M-22,353.6c0.7,0,1.2-0.6,1.2-1.2l0,0c0-0.7-0.6-1.2-1.2-1.2h-2.1c-0.7,0-1.2,0.6-1.2,1.2l0,0
							c0,0.7,0.6,1.2,1.2,1.2H-22z"/>
					</g>
				</g>
			</g>
			<g>
				<g>
					<g>
						<path class="st3" d="M-36.8,353.6c0.7,0,1.2-0.6,1.2-1.2l0,0c0-0.7-0.6-1.2-1.2-1.2h-6.3c-0.7,0-1.2,0.6-1.2,1.2l0,0
							c0,0.7,0.6,1.2,1.2,1.2H-36.8z"/>
					</g>
				</g>
			</g>
			<path class="st3" d="M-49.9,362.5L-49.9,362.5c0,0.7,0.6,1.2,1.2,1.2h60.5c5.5,0,10-4.5,10-10v-3.4c0-5.5-4.5-10-10-10h-34.1l0,0
				h-26.4c-0.7,0-1.2,0.6-1.2,1.2c0,0.7,0.6,1.2,1.2,1.2h3.6v18.6h-3.6C-49.4,361.3-49.9,361.8-49.9,362.5z M-42.6,361.3v-18.4h54.4
				c4.1,0,7.5,3.4,7.5,7.5v3.4c0,4.1-3.4,7.5-7.5,7.5H-42.6L-42.6,361.3z"/>
			<g>
				<polygon class="st26" points="-3.7,366.2 2.6,363.1 8.8,366.2 8.8,352.3 -3.7,352.3 				"/>
				<g>
					<g>
						<path class="st3" d="M10,351.1v17.2l-7.4-3.8l-7.5,3.8v-2v-15.2H10L10,351.1z M-3.7,366.2l-0.6-1.1L-3.7,366.2L-3.7,366.2z
							 M-2.4,364.2l5-2.5l4.9,2.5v-10.7h-10L-2.4,364.2L-2.4,364.2z"/>
					</g>
				</g>
			</g>
		</g>
	</g>
	<g class="st0">
		<g>
			<g>
				<g>
					<path class="st1" d="M308.9,211.1c0,4.7-3.9,8.6-8.6,8.6h-51.5c-4.7,0-8.6-3.9-8.6-8.6v-13.8c0-4.7,3.9-8.6,8.6-8.6h51.5
						c4.7,0,8.6,3.9,8.6,8.6V211.1L308.9,211.1z"/>
				</g>
			</g>
			<g>
				<path class="st2" d="M308.9,212.6c0,3.9-3.6,7.1-8,7.1H253c-4.4,0-8-3.2-8-7.1v-11.4c0-3.9,3.6-7.1,8-7.1h47.9
					c4.4,0,8,3.2,8,7.1V212.6z"/>
			</g>
			<g>
				<path class="st3" d="M238.8,211.1v-13.8c0-5.5,4.5-10,10-10l0,0h51.5c5.5,0,10,4.5,10,10l0,0v13.8c0,5.5-4.5,10-10,10l0,0h-51.5
					C243.3,221.1,238.8,216.6,238.8,211.1L238.8,211.1z M248.8,190.2c-3.9,0-7.1,3.2-7.1,7.1l0,0v13.8c0,3.9,3.2,7.1,7.1,7.2l0,0
					h51.5c3.9,0,7.1-3.2,7.2-7.2l0,0v-13.8c0-3.9-3.2-7.1-7.2-7.2l0,0L248.8,190.2L248.8,190.2z"/>
			</g>
		</g>
		<g>
			<g>
				<g>
					<path class="st1" d="M340.4,180.2c0,4.7-3.9,8.6-8.6,8.6h-51.5c-4.7,0-8.6-3.9-8.6-8.6v-13.8c0-4.7,3.9-8.6,8.6-8.6h51.5
						c4.7,0,8.6,3.9,8.6,8.6V180.2L340.4,180.2z"/>
				</g>
			</g>
			<g>
				<path class="st2" d="M340.4,181.6c0,3.9-3.6,7.1-8,7.1h-47.9c-4.4,0-8-3.2-8-7.1v-11.4c0-3.9,3.6-7.1,8-7.1h47.9
					c4.4,0,8,3.2,8,7.1V181.6L340.4,181.6z"/>
			</g>
			<g>
				<path class="st3" d="M270.4,180.2v-13.8c0-5.5,4.5-10,10-10l0,0h51.5c5.5,0,10,4.5,10,10l0,0v13.8c0,5.5-4.5,10-10,10l0,0h-51.5
					C274.9,190.2,270.4,185.7,270.4,180.2L270.4,180.2z M280.4,159.3c-3.9,0-7.1,3.2-7.1,7.2l0,0v13.8c0,3.9,3.2,7.1,7.1,7.2l0,0
					h51.5c3.9,0,7.1-3.2,7.2-7.2l0,0v-13.8c0-3.9-3.2-7.1-7.2-7.2l0,0H280.4L280.4,159.3z"/>
			</g>
		</g>
	</g>
	<g class="st0">
		<g>
			<g>
				<g>
					<path class="st1" d="M200.5,483.6c0,4.7-3.9,8.6-8.6,8.6h-51.5c-4.7,0-8.6-3.9-8.6-8.6v-13.8c0-4.7,3.9-8.6,8.6-8.6h51.5
						c4.7,0,8.6,3.9,8.6,8.6V483.6z"/>
				</g>
			</g>
			<g>
				<path class="st2" d="M200.5,485c0,3.9-3.6,7.1-8,7.1h-47.9c-4.4,0-8-3.2-8-7.1v-11.4c0-3.9,3.6-7.1,8-7.1h47.9
					c4.4,0,8,3.2,8,7.1L200.5,485L200.5,485z"/>
			</g>
			<g>
				<path class="st3" d="M130.4,483.6v-13.8c0-5.5,4.5-10,10-10l0,0h51.5c5.5,0,10,4.5,10,10l0,0v13.8c0,5.5-4.5,10-10,10l0,0h-51.5
					C134.9,493.6,130.4,489.1,130.4,483.6L130.4,483.6z M140.5,462.7c-3.9,0-7.1,3.2-7.2,7.1l0,0v13.8c0,3.9,3.2,7.1,7.2,7.2l0,0
					H192c3.9,0,7.1-3.2,7.1-7.1l0,0v-13.8c0-3.9-3.2-7.1-7.1-7.2l0,0H140.5L140.5,462.7z"/>
			</g>
		</g>
		<g>
			<g>
				<g>
					<path class="st1" d="M169.9,452.6c0,4.7-3.9,8.6-8.6,8.6h-51.5c-4.7,0-8.6-3.9-8.6-8.6v-13.8c0-4.7,3.9-8.6,8.6-8.6h51.5
						c4.7,0,8.6,3.9,8.6,8.6V452.6z"/>
				</g>
			</g>
			<g>
				<path class="st2" d="M169.9,454.1c0,3.9-3.6,7.1-8,7.1H114c-4.4,0-8-3.2-8-7.1v-11.4c0-3.9,3.6-7.1,8-7.1h47.9
					c4.4,0,8,3.2,8,7.1V454.1z"/>
			</g>
			<g>
				<path class="st3" d="M99.8,452.6v-13.8c0-5.5,4.5-10,10-10l0,0h51.5c5.5,0,10,4.5,10,10l0,0v13.8c0,5.5-4.5,10-10,10l0,0h-51.5
					C104.3,462.6,99.8,458.2,99.8,452.6L99.8,452.6z M109.8,431.7c-3.9,0-7.1,3.2-7.2,7.1l0,0v13.8c0,3.9,3.2,7.1,7.2,7.2l0,0h51.5
					c3.9,0,7.1-3.2,7.2-7.2l0,0v-13.8c0-3.9-3.2-7.1-7.2-7.2l0,0L109.8,431.7L109.8,431.7z"/>
			</g>
		</g>
		<g>
			<g>
				<g>
					<path class="st1" d="M238.8,452.6c0,4.7-3.9,8.6-8.6,8.6h-51.5c-4.7,0-8.6-3.9-8.6-8.6v-13.8c0-4.7,3.9-8.6,8.6-8.6h51.5
						c4.7,0,8.6,3.9,8.6,8.6V452.6z"/>
				</g>
			</g>
			<g>
				<path class="st2" d="M238.8,454.1c0,3.9-3.6,7.1-8,7.1h-47.9c-4.4,0-8-3.2-8-7.1v-11.4c0-3.9,3.6-7.1,8-7.1h47.9
					c4.4,0,8,3.2,8,7.1V454.1z"/>
			</g>
			<g>
				<path class="st3" d="M168.7,452.6v-13.8c0-5.5,4.5-10,10-10l0,0h51.5c5.5,0,10,4.5,10,10l0,0v13.8c0,5.5-4.5,10-10,10l0,0h-51.5
					C173.2,462.6,168.7,458.2,168.7,452.6L168.7,452.6z M178.7,431.7c-3.9,0-7.1,3.2-7.2,7.1l0,0v13.8c0,3.9,3.2,7.1,7.2,7.2l0,0
					h51.5c3.9,0,7.1-3.2,7.2-7.2l0,0v-13.8c0-3.9-3.2-7.1-7.2-7.2l0,0L178.7,431.7L178.7,431.7z"/>
			</g>
		</g>
	</g>
	<path class="st27" d="M167.4,257.6h-33.1c-0.9,0-1.6,0.7-1.6,1.6v116.1c0,0.9,0.7,1.6,1.6,1.6h153.1L167.4,257.6z"/>
	<g>
		<g>
			<path class="st3" d="M134.3,378.5c-1.8,0-3.2-1.4-3.2-3.2l0,0V259.2c0-1.8,1.4-3.2,3.2-3.2l0,0h188.4c1.8,0,3.2,1.4,3.2,3.2l0,0
				v116.1c0,1.8-1.4,3.2-3.2,3.2l0,0H134.3L134.3,378.5z M134.3,259.2v116.1l0,0h188.4l0,0V259.2l0,0l0,0H134.3L134.3,259.2
				L134.3,259.2z"/>
		</g>
	</g>
</g>
</svg>
